<mxfile host="65bd71144e">
    <diagram id="TeVm-qCTrc-ffut5ydjt" name="Page-1">
        <mxGraphModel dx="820" dy="478" grid="1" gridSize="10" guides="1" tooltips="1" connect="1" arrows="1" fold="1" page="1" pageScale="1" pageWidth="850" pageHeight="1100" math="0" shadow="0">
            <root>
                <mxCell id="0"/>
                <mxCell id="1" parent="0"/>
                <mxCell id="2" value="Tìm kiếm" style="strokeWidth=1;shadow=0;dashed=0;align=center;html=1;shape=mxgraph.mockup.buttons.button;strokeColor=#666666;fontColor=#ffffff;mainText=;buttonStyle=round;fontSize=17;fontStyle=1;fillColor=#008cff;whiteSpace=wrap;" vertex="1" parent="1">
                    <mxGeometry x="240" y="117.5" width="130" height="35" as="geometry"/>
                </mxCell>
                <mxCell id="3" value="" style="rounded=0;whiteSpace=wrap;html=1;" vertex="1" parent="1">
                    <mxGeometry x="65" y="30" width="720" height="70" as="geometry"/>
                </mxCell>
                <mxCell id="5" value="Search" style="strokeWidth=1;shadow=0;dashed=0;align=center;html=1;shape=mxgraph.mockup.forms.searchBox;strokeColor=#999999;mainText=;strokeColor2=#008cff;fontColor=#666666;fontSize=17;align=left;spacingLeft=3;" vertex="1" parent="1">
                    <mxGeometry x="65" y="120" width="150" height="30" as="geometry"/>
                </mxCell>
                <mxCell id="7" value="&lt;table border=&quot;0&quot; cellpadding=&quot;0&quot; cellspacing=&quot;0&quot; width=&quot;100%&quot; style=&quot;font-size: 1em&quot;&gt;&lt;tbody&gt;&lt;tr&gt;&lt;td width=&quot;25%&quot;&gt;Home&lt;/td&gt;&lt;td width=&quot;25%&quot;&gt;&lt;font color=&quot;#007fff&quot;&gt;&amp;nbsp; &amp;nbsp;Nhân viên&lt;span style=&quot;white-space: pre&quot;&gt;&#9;&lt;/span&gt;&lt;/font&gt;&lt;/td&gt;&lt;td width=&quot;25%&quot;&gt;Phòng ban&lt;/td&gt;&lt;td width=&quot;25%&quot;&gt;Bảng Lương&lt;/td&gt;&lt;/tr&gt;&lt;/tbody&gt;&lt;/table&gt;" style="strokeWidth=1;shadow=0;dashed=0;align=center;html=1;shape=mxgraph.mockup.navigation.stepBar;strokeColor=#c4c4c4;textColor=#666666;textColor2=#008cff;mainText=,,+,;textSize=17;fillColor=#666666;overflow=fill;fontSize=17;fontColor=#666666;" vertex="1" parent="1">
                    <mxGeometry x="120" y="40" width="590" height="50" as="geometry"/>
                </mxCell>
                <mxCell id="8" value="Thông tin nhân viên 1" style="rounded=0;whiteSpace=wrap;html=1;fontColor=#666666;" vertex="1" parent="1">
                    <mxGeometry x="130" y="180" width="220" height="150" as="geometry"/>
                </mxCell>
                <mxCell id="9" value="Thông tin nhân viên 2" style="rounded=0;whiteSpace=wrap;html=1;fontColor=#666666;" vertex="1" parent="1">
                    <mxGeometry x="510" y="180" width="220" height="150" as="geometry"/>
                </mxCell>
                <mxCell id="10" value="" style="rounded=0;whiteSpace=wrap;html=1;fontColor=#666666;" vertex="1" parent="1">
                    <mxGeometry x="70" y="370" width="730" height="190" as="geometry"/>
                </mxCell>
                <mxCell id="11" value="ABOUT US&lt;br&gt;Address:&amp;nbsp;&lt;br&gt;Phone:&lt;br&gt;Email:&lt;br&gt;Fax:&amp;nbsp;" style="rounded=0;whiteSpace=wrap;html=1;fontColor=#666666;" vertex="1" parent="1">
                    <mxGeometry x="70" y="370" width="240" height="130" as="geometry"/>
                </mxCell>
            </root>
        </mxGraphModel>
    </diagram>
</mxfile>